<svg id="Layer_1" data-name="Layer 1" xmlns="http://www.w3.org/2000/svg" viewBox="0 0 600 600"><title>name</title><circle cx="300" cy="300" r="293.72" fill="#7f4444"/><path d="M209.71,302.09c0-15.37-.23-30.74.05-46.11.41-22.15,10.55-38.29,30.89-47.52a88.61,88.61,0,0,1,39-8.35c14.18.32,28.37.15,42.56.05a83.82,83.82,0,0,1,43.06,11.65c15.83,9.15,24.09,23.8,24.52,41.63.77,31.9.69,63.85,0,95.76-.41,20.19-5.51,39.43-17.38,56.28-2.08,3-5.06,5.28-7.35,8.11-1.44,1.78-3,3.83-3.46,6-2.8,12.48-5.64,25-7.84,37.58-4.7,27-8.9,54.07-13.55,81.06-2.63,15.26-12.62,23.38-27.94,23.38H287.07c-14.85,0-25-8.07-27.58-22.69-4.68-26.83-8.94-53.74-13.49-80.59q-2.69-15.89-5.92-31.68a28.86,28.86,0,0,0-8.59-15.82c-7.69-7.42-12.24-17.29-15.59-27.49a118,118,0,0,1-6.23-38.22C209.82,330.76,209.71,316.43,209.71,302.09Z" fill="#fff"/><path d="M225.25,111.29A72.37,72.37,0,0,1,298.16,38.4c40.73,0,72.9,31.62,73,72.87S338.71,184.32,298,184.42C257.48,184.51,225.14,151.56,225.25,111.29Z" fill="#fff"/></svg>