<svg id="Layer_1" data-name="Layer 1" xmlns="http://www.w3.org/2000/svg" viewBox="0 0 600 600"><title>notype</title><circle cx="300" cy="300" r="293.72" fill="#bcc9bc"/><path d="M275.57,361.49v-22.4a97.56,97.56,0,0,1,1-15.27,37.32,37.32,0,0,1,3.67-11.4,46,46,0,0,1,6.92-9.77q4.28-4.68,10.38-11.2l31.36-31.76q10.17-10.17,10.18-26.47,0-15.88-10.38-25.86t-26.27-10q-17.1,0-28.1,11.61a46.49,46.49,0,0,0-12.62,28.3l-52.13-4.07a105.36,105.36,0,0,1,10.18-34.82,82.52,82.52,0,0,1,20.16-25.86,86.29,86.29,0,0,1,28.71-16.09,111.48,111.48,0,0,1,35.84-5.5,105.79,105.79,0,0,1,34,5.29,81.3,81.3,0,0,1,27.28,15.27,68.54,68.54,0,0,1,18.12,24.84q6.51,14.87,6.52,34A69.6,69.6,0,0,1,386.74,254,76.78,76.78,0,0,1,377,272.72a120.44,120.44,0,0,1-14,16.29Q355,296.75,346,305.29q-5.71,5.3-9.77,9.37a46.4,46.4,0,0,0-6.72,8.35,31.22,31.22,0,0,0-3.87,9.77A61.91,61.91,0,0,0,324.43,346v15.48Zm-8.14,56.6A30.25,30.25,0,0,1,277,395.7a31.72,31.72,0,0,1,23-9.37,32.71,32.71,0,0,1,22.81,9,28.68,28.68,0,0,1,9.77,22,30.25,30.25,0,0,1-9.57,22.4A31.7,31.7,0,0,1,300,449a32.14,32.14,0,0,1-12.42-2.44,35.32,35.32,0,0,1-10.38-6.52,30.1,30.1,0,0,1-7.13-9.77A28.58,28.58,0,0,1,267.42,418.1Z" fill="#fff"/></svg>