<svg id="Layer_1" data-name="Layer 1" xmlns="http://www.w3.org/2000/svg" viewBox="0 0 600 600"><title>song</title><circle cx="300" cy="300" r="293.72" fill="#70b3e3"/><path d="M443.09,341.23q0,23.67-26,40.06-22.62,14-46.19,14-18.81,0-33.09-7.28-18.57-9.37-18.57-27.31,0-22.37,27.86-36.42,22.38-11.44,45.48-11.45,16.43,0,29,5.46V201.81L279.29,270.74v161q0,23.41-25.48,40.32-22.38,14.83-45.47,14.83-18.57,0-32.86-7.28-18.57-9.1-18.57-27.31,0-22.11,27.62-36.42Q206.9,404.44,230,404.44a72,72,0,0,1,28.09,5.2V202.07l185-89Z" fill="#fff"/></svg>